<mxfile host="app.diagrams.net" agent="Mozilla/5.0 (Windows NT 10.0; Win64; x64) AppleWebKit/537.36 (KHTML, like Gecko) Chrome/134.0.0.0 Safari/537.36" version="26.1.1">
  <diagram id="C5RBs43oDa-KdzZeNtuy" name="Page-1">
    <mxGraphModel dx="1726" dy="395" grid="1" gridSize="10" guides="1" tooltips="1" connect="1" arrows="1" fold="1" page="1" pageScale="1" pageWidth="827" pageHeight="1169" math="0" shadow="0">
      <root>
        <mxCell id="WIyWlLk6GJQsqaUBKTNV-0" />
        <mxCell id="WIyWlLk6GJQsqaUBKTNV-1" parent="WIyWlLk6GJQsqaUBKTNV-0" />
        <mxCell id="zkfFHV4jXpPFQw0GAbJ--17" value="User" style="swimlane;fontStyle=0;align=center;verticalAlign=top;childLayout=stackLayout;horizontal=1;startSize=26;horizontalStack=0;resizeParent=1;resizeLast=0;collapsible=1;marginBottom=0;rounded=0;shadow=0;strokeWidth=1;" parent="WIyWlLk6GJQsqaUBKTNV-1" vertex="1">
          <mxGeometry x="508" y="120" width="292" height="244" as="geometry">
            <mxRectangle x="550" y="140" width="160" height="26" as="alternateBounds" />
          </mxGeometry>
        </mxCell>
        <mxCell id="zkfFHV4jXpPFQw0GAbJ--18" value="+id: int" style="text;align=left;verticalAlign=top;spacingLeft=4;spacingRight=4;overflow=hidden;rotatable=0;points=[[0,0.5],[1,0.5]];portConstraint=eastwest;" parent="zkfFHV4jXpPFQw0GAbJ--17" vertex="1">
          <mxGeometry y="26" width="292" height="26" as="geometry" />
        </mxCell>
        <mxCell id="zkfFHV4jXpPFQw0GAbJ--19" value="+name: string" style="text;align=left;verticalAlign=top;spacingLeft=4;spacingRight=4;overflow=hidden;rotatable=0;points=[[0,0.5],[1,0.5]];portConstraint=eastwest;rounded=0;shadow=0;html=0;" parent="zkfFHV4jXpPFQw0GAbJ--17" vertex="1">
          <mxGeometry y="52" width="292" height="28" as="geometry" />
        </mxCell>
        <mxCell id="zkfFHV4jXpPFQw0GAbJ--20" value="+email: string" style="text;align=left;verticalAlign=top;spacingLeft=4;spacingRight=4;overflow=hidden;rotatable=0;points=[[0,0.5],[1,0.5]];portConstraint=eastwest;rounded=0;shadow=0;html=0;" parent="zkfFHV4jXpPFQw0GAbJ--17" vertex="1">
          <mxGeometry y="80" width="292" height="26" as="geometry" />
        </mxCell>
        <mxCell id="zkfFHV4jXpPFQw0GAbJ--21" value=" +password: string" style="text;align=left;verticalAlign=top;spacingLeft=4;spacingRight=4;overflow=hidden;rotatable=0;points=[[0,0.5],[1,0.5]];portConstraint=eastwest;rounded=0;shadow=0;html=0;" parent="zkfFHV4jXpPFQw0GAbJ--17" vertex="1">
          <mxGeometry y="106" width="292" height="26" as="geometry" />
        </mxCell>
        <mxCell id="zkfFHV4jXpPFQw0GAbJ--22" value="+role: enum {CANDIDATE, RECRUITER, ADMIN}" style="text;align=left;verticalAlign=top;spacingLeft=4;spacingRight=4;overflow=hidden;rotatable=0;points=[[0,0.5],[1,0.5]];portConstraint=eastwest;rounded=0;shadow=0;html=0;" parent="zkfFHV4jXpPFQw0GAbJ--17" vertex="1">
          <mxGeometry y="132" width="292" height="26" as="geometry" />
        </mxCell>
        <mxCell id="zkfFHV4jXpPFQw0GAbJ--23" value="" style="line;html=1;strokeWidth=1;align=left;verticalAlign=middle;spacingTop=-1;spacingLeft=3;spacingRight=3;rotatable=0;labelPosition=right;points=[];portConstraint=eastwest;" parent="zkfFHV4jXpPFQw0GAbJ--17" vertex="1">
          <mxGeometry y="158" width="292" height="8" as="geometry" />
        </mxCell>
        <mxCell id="zkfFHV4jXpPFQw0GAbJ--24" value="+register(): User" style="text;align=left;verticalAlign=top;spacingLeft=4;spacingRight=4;overflow=hidden;rotatable=0;points=[[0,0.5],[1,0.5]];portConstraint=eastwest;" parent="zkfFHV4jXpPFQw0GAbJ--17" vertex="1">
          <mxGeometry y="166" width="292" height="26" as="geometry" />
        </mxCell>
        <mxCell id="zkfFHV4jXpPFQw0GAbJ--25" value="+login(): string" style="text;align=left;verticalAlign=top;spacingLeft=4;spacingRight=4;overflow=hidden;rotatable=0;points=[[0,0.5],[1,0.5]];portConstraint=eastwest;" parent="zkfFHV4jXpPFQw0GAbJ--17" vertex="1">
          <mxGeometry y="192" width="292" height="26" as="geometry" />
        </mxCell>
        <mxCell id="McvtSRhCw-n-5tpOQbnj-2" value="+resetPassword(): void" style="text;align=left;verticalAlign=top;spacingLeft=4;spacingRight=4;overflow=hidden;rotatable=0;points=[[0,0.5],[1,0.5]];portConstraint=eastwest;" parent="zkfFHV4jXpPFQw0GAbJ--17" vertex="1">
          <mxGeometry y="218" width="292" height="26" as="geometry" />
        </mxCell>
        <mxCell id="McvtSRhCw-n-5tpOQbnj-3" value="JobPost" style="swimlane;fontStyle=0;align=center;verticalAlign=top;childLayout=stackLayout;horizontal=1;startSize=26;horizontalStack=0;resizeParent=1;resizeLast=0;collapsible=1;marginBottom=0;rounded=0;shadow=0;strokeWidth=1;" parent="WIyWlLk6GJQsqaUBKTNV-1" vertex="1">
          <mxGeometry x="508" y="640" width="292" height="270" as="geometry">
            <mxRectangle x="550" y="140" width="160" height="26" as="alternateBounds" />
          </mxGeometry>
        </mxCell>
        <mxCell id="McvtSRhCw-n-5tpOQbnj-4" value="+id: int" style="text;align=left;verticalAlign=top;spacingLeft=4;spacingRight=4;overflow=hidden;rotatable=0;points=[[0,0.5],[1,0.5]];portConstraint=eastwest;" parent="McvtSRhCw-n-5tpOQbnj-3" vertex="1">
          <mxGeometry y="26" width="292" height="26" as="geometry" />
        </mxCell>
        <mxCell id="McvtSRhCw-n-5tpOQbnj-5" value="+title: string" style="text;align=left;verticalAlign=top;spacingLeft=4;spacingRight=4;overflow=hidden;rotatable=0;points=[[0,0.5],[1,0.5]];portConstraint=eastwest;rounded=0;shadow=0;html=0;" parent="McvtSRhCw-n-5tpOQbnj-3" vertex="1">
          <mxGeometry y="52" width="292" height="28" as="geometry" />
        </mxCell>
        <mxCell id="McvtSRhCw-n-5tpOQbnj-6" value="+description: text" style="text;align=left;verticalAlign=top;spacingLeft=4;spacingRight=4;overflow=hidden;rotatable=0;points=[[0,0.5],[1,0.5]];portConstraint=eastwest;rounded=0;shadow=0;html=0;" parent="McvtSRhCw-n-5tpOQbnj-3" vertex="1">
          <mxGeometry y="80" width="292" height="26" as="geometry" />
        </mxCell>
        <mxCell id="McvtSRhCw-n-5tpOQbnj-7" value="+location: string" style="text;align=left;verticalAlign=top;spacingLeft=4;spacingRight=4;overflow=hidden;rotatable=0;points=[[0,0.5],[1,0.5]];portConstraint=eastwest;rounded=0;shadow=0;html=0;" parent="McvtSRhCw-n-5tpOQbnj-3" vertex="1">
          <mxGeometry y="106" width="292" height="26" as="geometry" />
        </mxCell>
        <mxCell id="McvtSRhCw-n-5tpOQbnj-8" value="+salary: decimal" style="text;align=left;verticalAlign=top;spacingLeft=4;spacingRight=4;overflow=hidden;rotatable=0;points=[[0,0.5],[1,0.5]];portConstraint=eastwest;rounded=0;shadow=0;html=0;" parent="McvtSRhCw-n-5tpOQbnj-3" vertex="1">
          <mxGeometry y="132" width="292" height="26" as="geometry" />
        </mxCell>
        <mxCell id="McvtSRhCw-n-5tpOQbnj-13" value=" +recruiter_id: int" style="text;align=left;verticalAlign=top;spacingLeft=4;spacingRight=4;overflow=hidden;rotatable=0;points=[[0,0.5],[1,0.5]];portConstraint=eastwest;rounded=0;shadow=0;html=0;" parent="McvtSRhCw-n-5tpOQbnj-3" vertex="1">
          <mxGeometry y="158" width="292" height="26" as="geometry" />
        </mxCell>
        <mxCell id="McvtSRhCw-n-5tpOQbnj-9" value="" style="line;html=1;strokeWidth=1;align=left;verticalAlign=middle;spacingTop=-1;spacingLeft=3;spacingRight=3;rotatable=0;labelPosition=right;points=[];portConstraint=eastwest;" parent="McvtSRhCw-n-5tpOQbnj-3" vertex="1">
          <mxGeometry y="184" width="292" height="8" as="geometry" />
        </mxCell>
        <mxCell id="McvtSRhCw-n-5tpOQbnj-10" value="+createPost(): JobPost" style="text;align=left;verticalAlign=top;spacingLeft=4;spacingRight=4;overflow=hidden;rotatable=0;points=[[0,0.5],[1,0.5]];portConstraint=eastwest;" parent="McvtSRhCw-n-5tpOQbnj-3" vertex="1">
          <mxGeometry y="192" width="292" height="26" as="geometry" />
        </mxCell>
        <mxCell id="McvtSRhCw-n-5tpOQbnj-11" value="+updatePost(): void" style="text;align=left;verticalAlign=top;spacingLeft=4;spacingRight=4;overflow=hidden;rotatable=0;points=[[0,0.5],[1,0.5]];portConstraint=eastwest;" parent="McvtSRhCw-n-5tpOQbnj-3" vertex="1">
          <mxGeometry y="218" width="292" height="26" as="geometry" />
        </mxCell>
        <mxCell id="McvtSRhCw-n-5tpOQbnj-12" value="+deletePost(): void" style="text;align=left;verticalAlign=top;spacingLeft=4;spacingRight=4;overflow=hidden;rotatable=0;points=[[0,0.5],[1,0.5]];portConstraint=eastwest;" parent="McvtSRhCw-n-5tpOQbnj-3" vertex="1">
          <mxGeometry y="244" width="292" height="26" as="geometry" />
        </mxCell>
        <mxCell id="McvtSRhCw-n-5tpOQbnj-14" value="Application" style="swimlane;fontStyle=0;align=center;verticalAlign=top;childLayout=stackLayout;horizontal=1;startSize=26;horizontalStack=0;resizeParent=1;resizeLast=0;collapsible=1;marginBottom=0;rounded=0;shadow=0;strokeWidth=1;" parent="WIyWlLk6GJQsqaUBKTNV-1" vertex="1">
          <mxGeometry x="1160" y="395" width="370" height="270" as="geometry">
            <mxRectangle x="550" y="140" width="160" height="26" as="alternateBounds" />
          </mxGeometry>
        </mxCell>
        <mxCell id="McvtSRhCw-n-5tpOQbnj-15" value="+id: int" style="text;align=left;verticalAlign=top;spacingLeft=4;spacingRight=4;overflow=hidden;rotatable=0;points=[[0,0.5],[1,0.5]];portConstraint=eastwest;" parent="McvtSRhCw-n-5tpOQbnj-14" vertex="1">
          <mxGeometry y="26" width="370" height="26" as="geometry" />
        </mxCell>
        <mxCell id="McvtSRhCw-n-5tpOQbnj-16" value="+candidate_id: int" style="text;align=left;verticalAlign=top;spacingLeft=4;spacingRight=4;overflow=hidden;rotatable=0;points=[[0,0.5],[1,0.5]];portConstraint=eastwest;rounded=0;shadow=0;html=0;" parent="McvtSRhCw-n-5tpOQbnj-14" vertex="1">
          <mxGeometry y="52" width="370" height="28" as="geometry" />
        </mxCell>
        <mxCell id="McvtSRhCw-n-5tpOQbnj-17" value="+job_post_id: int" style="text;align=left;verticalAlign=top;spacingLeft=4;spacingRight=4;overflow=hidden;rotatable=0;points=[[0,0.5],[1,0.5]];portConstraint=eastwest;rounded=0;shadow=0;html=0;" parent="McvtSRhCw-n-5tpOQbnj-14" vertex="1">
          <mxGeometry y="80" width="370" height="26" as="geometry" />
        </mxCell>
        <mxCell id="McvtSRhCw-n-5tpOQbnj-18" value="+cv: string" style="text;align=left;verticalAlign=top;spacingLeft=4;spacingRight=4;overflow=hidden;rotatable=0;points=[[0,0.5],[1,0.5]];portConstraint=eastwest;rounded=0;shadow=0;html=0;" parent="McvtSRhCw-n-5tpOQbnj-14" vertex="1">
          <mxGeometry y="106" width="370" height="26" as="geometry" />
        </mxCell>
        <mxCell id="McvtSRhCw-n-5tpOQbnj-19" value="+cover_letter: text" style="text;align=left;verticalAlign=top;spacingLeft=4;spacingRight=4;overflow=hidden;rotatable=0;points=[[0,0.5],[1,0.5]];portConstraint=eastwest;rounded=0;shadow=0;html=0;" parent="McvtSRhCw-n-5tpOQbnj-14" vertex="1">
          <mxGeometry y="132" width="370" height="26" as="geometry" />
        </mxCell>
        <mxCell id="McvtSRhCw-n-5tpOQbnj-20" value="+status: enum {PENDING, REVIEWED, ACCEPTED, REJECTED}" style="text;align=left;verticalAlign=top;spacingLeft=4;spacingRight=4;overflow=hidden;rotatable=0;points=[[0,0.5],[1,0.5]];portConstraint=eastwest;rounded=0;shadow=0;html=0;" parent="McvtSRhCw-n-5tpOQbnj-14" vertex="1">
          <mxGeometry y="158" width="370" height="26" as="geometry" />
        </mxCell>
        <mxCell id="McvtSRhCw-n-5tpOQbnj-21" value="" style="line;html=1;strokeWidth=1;align=left;verticalAlign=middle;spacingTop=-1;spacingLeft=3;spacingRight=3;rotatable=0;labelPosition=right;points=[];portConstraint=eastwest;" parent="McvtSRhCw-n-5tpOQbnj-14" vertex="1">
          <mxGeometry y="184" width="370" height="8" as="geometry" />
        </mxCell>
        <mxCell id="McvtSRhCw-n-5tpOQbnj-22" value="+apply(): Application" style="text;align=left;verticalAlign=top;spacingLeft=4;spacingRight=4;overflow=hidden;rotatable=0;points=[[0,0.5],[1,0.5]];portConstraint=eastwest;" parent="McvtSRhCw-n-5tpOQbnj-14" vertex="1">
          <mxGeometry y="192" width="370" height="26" as="geometry" />
        </mxCell>
        <mxCell id="McvtSRhCw-n-5tpOQbnj-23" value="+withdraw(): void" style="text;align=left;verticalAlign=top;spacingLeft=4;spacingRight=4;overflow=hidden;rotatable=0;points=[[0,0.5],[1,0.5]];portConstraint=eastwest;" parent="McvtSRhCw-n-5tpOQbnj-14" vertex="1">
          <mxGeometry y="218" width="370" height="26" as="geometry" />
        </mxCell>
        <mxCell id="McvtSRhCw-n-5tpOQbnj-24" value="+updateStatus(): void" style="text;align=left;verticalAlign=top;spacingLeft=4;spacingRight=4;overflow=hidden;rotatable=0;points=[[0,0.5],[1,0.5]];portConstraint=eastwest;" parent="McvtSRhCw-n-5tpOQbnj-14" vertex="1">
          <mxGeometry y="244" width="370" height="26" as="geometry" />
        </mxCell>
        <mxCell id="McvtSRhCw-n-5tpOQbnj-25" value="Notification" style="swimlane;fontStyle=0;align=center;verticalAlign=top;childLayout=stackLayout;horizontal=1;startSize=26;horizontalStack=0;resizeParent=1;resizeLast=0;collapsible=1;marginBottom=0;rounded=0;shadow=0;strokeWidth=1;" parent="WIyWlLk6GJQsqaUBKTNV-1" vertex="1">
          <mxGeometry x="-140" y="395" width="292" height="200" as="geometry">
            <mxRectangle x="550" y="140" width="160" height="26" as="alternateBounds" />
          </mxGeometry>
        </mxCell>
        <mxCell id="McvtSRhCw-n-5tpOQbnj-26" value="+id: int" style="text;align=left;verticalAlign=top;spacingLeft=4;spacingRight=4;overflow=hidden;rotatable=0;points=[[0,0.5],[1,0.5]];portConstraint=eastwest;" parent="McvtSRhCw-n-5tpOQbnj-25" vertex="1">
          <mxGeometry y="26" width="292" height="26" as="geometry" />
        </mxCell>
        <mxCell id="McvtSRhCw-n-5tpOQbnj-27" value="+user_id: int" style="text;align=left;verticalAlign=top;spacingLeft=4;spacingRight=4;overflow=hidden;rotatable=0;points=[[0,0.5],[1,0.5]];portConstraint=eastwest;rounded=0;shadow=0;html=0;" parent="McvtSRhCw-n-5tpOQbnj-25" vertex="1">
          <mxGeometry y="52" width="292" height="28" as="geometry" />
        </mxCell>
        <mxCell id="McvtSRhCw-n-5tpOQbnj-28" value="+message: text" style="text;align=left;verticalAlign=top;spacingLeft=4;spacingRight=4;overflow=hidden;rotatable=0;points=[[0,0.5],[1,0.5]];portConstraint=eastwest;rounded=0;shadow=0;html=0;" parent="McvtSRhCw-n-5tpOQbnj-25" vertex="1">
          <mxGeometry y="80" width="292" height="26" as="geometry" />
        </mxCell>
        <mxCell id="McvtSRhCw-n-5tpOQbnj-29" value="+is_read: boolean" style="text;align=left;verticalAlign=top;spacingLeft=4;spacingRight=4;overflow=hidden;rotatable=0;points=[[0,0.5],[1,0.5]];portConstraint=eastwest;rounded=0;shadow=0;html=0;" parent="McvtSRhCw-n-5tpOQbnj-25" vertex="1">
          <mxGeometry y="106" width="292" height="26" as="geometry" />
        </mxCell>
        <mxCell id="McvtSRhCw-n-5tpOQbnj-32" value="" style="line;html=1;strokeWidth=1;align=left;verticalAlign=middle;spacingTop=-1;spacingLeft=3;spacingRight=3;rotatable=0;labelPosition=right;points=[];portConstraint=eastwest;" parent="McvtSRhCw-n-5tpOQbnj-25" vertex="1">
          <mxGeometry y="132" width="292" height="8" as="geometry" />
        </mxCell>
        <mxCell id="McvtSRhCw-n-5tpOQbnj-33" value="+sendNotification(): void" style="text;align=left;verticalAlign=top;spacingLeft=4;spacingRight=4;overflow=hidden;rotatable=0;points=[[0,0.5],[1,0.5]];portConstraint=eastwest;" parent="McvtSRhCw-n-5tpOQbnj-25" vertex="1">
          <mxGeometry y="140" width="292" height="26" as="geometry" />
        </mxCell>
        <mxCell id="McvtSRhCw-n-5tpOQbnj-34" value="+markAsRead(): void" style="text;align=left;verticalAlign=top;spacingLeft=4;spacingRight=4;overflow=hidden;rotatable=0;points=[[0,0.5],[1,0.5]];portConstraint=eastwest;" parent="McvtSRhCw-n-5tpOQbnj-25" vertex="1">
          <mxGeometry y="166" width="292" height="26" as="geometry" />
        </mxCell>
        <mxCell id="McvtSRhCw-n-5tpOQbnj-36" value="Statistics" style="swimlane;fontStyle=0;align=center;verticalAlign=top;childLayout=stackLayout;horizontal=1;startSize=26;horizontalStack=0;resizeParent=1;resizeLast=0;collapsible=1;marginBottom=0;rounded=0;shadow=0;strokeWidth=1;" parent="WIyWlLk6GJQsqaUBKTNV-1" vertex="1">
          <mxGeometry x="-100" y="920" width="292" height="218" as="geometry">
            <mxRectangle x="550" y="140" width="160" height="26" as="alternateBounds" />
          </mxGeometry>
        </mxCell>
        <mxCell id="McvtSRhCw-n-5tpOQbnj-37" value="+id: int" style="text;align=left;verticalAlign=top;spacingLeft=4;spacingRight=4;overflow=hidden;rotatable=0;points=[[0,0.5],[1,0.5]];portConstraint=eastwest;" parent="McvtSRhCw-n-5tpOQbnj-36" vertex="1">
          <mxGeometry y="26" width="292" height="26" as="geometry" />
        </mxCell>
        <mxCell id="McvtSRhCw-n-5tpOQbnj-38" value="+user_id: int" style="text;align=left;verticalAlign=top;spacingLeft=4;spacingRight=4;overflow=hidden;rotatable=0;points=[[0,0.5],[1,0.5]];portConstraint=eastwest;rounded=0;shadow=0;html=0;" parent="McvtSRhCw-n-5tpOQbnj-36" vertex="1">
          <mxGeometry y="52" width="292" height="28" as="geometry" />
        </mxCell>
        <mxCell id="McvtSRhCw-n-5tpOQbnj-39" value="+total_posts: int" style="text;align=left;verticalAlign=top;spacingLeft=4;spacingRight=4;overflow=hidden;rotatable=0;points=[[0,0.5],[1,0.5]];portConstraint=eastwest;rounded=0;shadow=0;html=0;" parent="McvtSRhCw-n-5tpOQbnj-36" vertex="1">
          <mxGeometry y="80" width="292" height="26" as="geometry" />
        </mxCell>
        <mxCell id="McvtSRhCw-n-5tpOQbnj-40" value="+total_applications: int" style="text;align=left;verticalAlign=top;spacingLeft=4;spacingRight=4;overflow=hidden;rotatable=0;points=[[0,0.5],[1,0.5]];portConstraint=eastwest;rounded=0;shadow=0;html=0;" parent="McvtSRhCw-n-5tpOQbnj-36" vertex="1">
          <mxGeometry y="106" width="292" height="26" as="geometry" />
        </mxCell>
        <mxCell id="McvtSRhCw-n-5tpOQbnj-44" value="+hired_candidates: int" style="text;align=left;verticalAlign=top;spacingLeft=4;spacingRight=4;overflow=hidden;rotatable=0;points=[[0,0.5],[1,0.5]];portConstraint=eastwest;rounded=0;shadow=0;html=0;" parent="McvtSRhCw-n-5tpOQbnj-36" vertex="1">
          <mxGeometry y="132" width="292" height="26" as="geometry" />
        </mxCell>
        <mxCell id="McvtSRhCw-n-5tpOQbnj-41" value="" style="line;html=1;strokeWidth=1;align=left;verticalAlign=middle;spacingTop=-1;spacingLeft=3;spacingRight=3;rotatable=0;labelPosition=right;points=[];portConstraint=eastwest;" parent="McvtSRhCw-n-5tpOQbnj-36" vertex="1">
          <mxGeometry y="158" width="292" height="8" as="geometry" />
        </mxCell>
        <mxCell id="McvtSRhCw-n-5tpOQbnj-42" value="+generateRecruiterStats(): object" style="text;align=left;verticalAlign=top;spacingLeft=4;spacingRight=4;overflow=hidden;rotatable=0;points=[[0,0.5],[1,0.5]];portConstraint=eastwest;" parent="McvtSRhCw-n-5tpOQbnj-36" vertex="1">
          <mxGeometry y="166" width="292" height="26" as="geometry" />
        </mxCell>
        <mxCell id="McvtSRhCw-n-5tpOQbnj-43" value="  +generateAdminStats(): object" style="text;align=left;verticalAlign=top;spacingLeft=4;spacingRight=4;overflow=hidden;rotatable=0;points=[[0,0.5],[1,0.5]];portConstraint=eastwest;" parent="McvtSRhCw-n-5tpOQbnj-36" vertex="1">
          <mxGeometry y="192" width="292" height="26" as="geometry" />
        </mxCell>
        <mxCell id="McvtSRhCw-n-5tpOQbnj-45" value="" style="endArrow=none;html=1;rounded=0;entryX=0.495;entryY=1.051;entryDx=0;entryDy=0;entryPerimeter=0;exitX=0.5;exitY=0;exitDx=0;exitDy=0;" parent="WIyWlLk6GJQsqaUBKTNV-1" source="McvtSRhCw-n-5tpOQbnj-3" target="McvtSRhCw-n-5tpOQbnj-2" edge="1">
          <mxGeometry width="50" height="50" relative="1" as="geometry">
            <mxPoint x="570" y="550" as="sourcePoint" />
            <mxPoint x="620" y="500" as="targetPoint" />
          </mxGeometry>
        </mxCell>
        <mxCell id="McvtSRhCw-n-5tpOQbnj-46" value="1" style="text;html=1;align=center;verticalAlign=middle;whiteSpace=wrap;rounded=0;" parent="WIyWlLk6GJQsqaUBKTNV-1" vertex="1">
          <mxGeometry x="605" y="365" width="60" height="30" as="geometry" />
        </mxCell>
        <mxCell id="McvtSRhCw-n-5tpOQbnj-47" value="*" style="text;html=1;align=center;verticalAlign=middle;whiteSpace=wrap;rounded=0;" parent="WIyWlLk6GJQsqaUBKTNV-1" vertex="1">
          <mxGeometry x="608" y="611" width="60" height="30" as="geometry" />
        </mxCell>
        <mxCell id="McvtSRhCw-n-5tpOQbnj-48" value="creates" style="text;html=1;align=center;verticalAlign=middle;whiteSpace=wrap;rounded=0;" parent="WIyWlLk6GJQsqaUBKTNV-1" vertex="1">
          <mxGeometry x="580" y="490" width="60" height="30" as="geometry" />
        </mxCell>
        <mxCell id="McvtSRhCw-n-5tpOQbnj-49" value="" style="endArrow=none;html=1;rounded=0;exitX=1;exitY=0.5;exitDx=0;exitDy=0;entryX=0;entryY=0.5;entryDx=0;entryDy=0;" parent="WIyWlLk6GJQsqaUBKTNV-1" source="zkfFHV4jXpPFQw0GAbJ--21" target="McvtSRhCw-n-5tpOQbnj-18" edge="1">
          <mxGeometry width="50" height="50" relative="1" as="geometry">
            <mxPoint x="950" y="400" as="sourcePoint" />
            <mxPoint x="1000" y="350" as="targetPoint" />
          </mxGeometry>
        </mxCell>
        <mxCell id="McvtSRhCw-n-5tpOQbnj-50" value="1" style="text;html=1;align=center;verticalAlign=middle;whiteSpace=wrap;rounded=0;" parent="WIyWlLk6GJQsqaUBKTNV-1" vertex="1">
          <mxGeometry x="780" y="216" width="60" height="30" as="geometry" />
        </mxCell>
        <mxCell id="McvtSRhCw-n-5tpOQbnj-51" value="*" style="text;html=1;align=center;verticalAlign=middle;whiteSpace=wrap;rounded=0;" parent="WIyWlLk6GJQsqaUBKTNV-1" vertex="1">
          <mxGeometry x="1113" y="463" width="60" height="30" as="geometry" />
        </mxCell>
        <mxCell id="McvtSRhCw-n-5tpOQbnj-52" value="applies" style="text;html=1;align=center;verticalAlign=middle;whiteSpace=wrap;rounded=0;rotation=35;" parent="WIyWlLk6GJQsqaUBKTNV-1" vertex="1">
          <mxGeometry x="980" y="364" width="60" height="30" as="geometry" />
        </mxCell>
        <mxCell id="McvtSRhCw-n-5tpOQbnj-53" value="" style="endArrow=none;html=1;rounded=0;edgeStyle=orthogonalEdgeStyle;entryX=0.536;entryY=1.109;entryDx=0;entryDy=0;entryPerimeter=0;exitX=0.435;exitY=1.045;exitDx=0;exitDy=0;exitPerimeter=0;" parent="WIyWlLk6GJQsqaUBKTNV-1" source="McvtSRhCw-n-5tpOQbnj-12" target="McvtSRhCw-n-5tpOQbnj-24" edge="1">
          <mxGeometry width="50" height="50" relative="1" as="geometry">
            <mxPoint x="650" y="950" as="sourcePoint" />
            <mxPoint x="1000" y="780" as="targetPoint" />
            <Array as="points">
              <mxPoint x="635" y="970" />
              <mxPoint x="1358" y="970" />
            </Array>
          </mxGeometry>
        </mxCell>
        <mxCell id="McvtSRhCw-n-5tpOQbnj-54" value="1" style="text;html=1;align=center;verticalAlign=middle;whiteSpace=wrap;rounded=0;" parent="WIyWlLk6GJQsqaUBKTNV-1" vertex="1">
          <mxGeometry x="624" y="910" width="60" height="30" as="geometry" />
        </mxCell>
        <mxCell id="McvtSRhCw-n-5tpOQbnj-55" value="*" style="text;html=1;align=center;verticalAlign=middle;whiteSpace=wrap;rounded=0;" parent="WIyWlLk6GJQsqaUBKTNV-1" vertex="1">
          <mxGeometry x="1300" y="665" width="60" height="30" as="geometry" />
        </mxCell>
        <mxCell id="McvtSRhCw-n-5tpOQbnj-57" value="" style="endArrow=none;html=1;rounded=0;entryX=1;entryY=0.5;entryDx=0;entryDy=0;exitX=-0.001;exitY=0.013;exitDx=0;exitDy=0;exitPerimeter=0;" parent="WIyWlLk6GJQsqaUBKTNV-1" source="zkfFHV4jXpPFQw0GAbJ--20" target="McvtSRhCw-n-5tpOQbnj-27" edge="1">
          <mxGeometry width="50" height="50" relative="1" as="geometry">
            <mxPoint x="810" y="249" as="sourcePoint" />
            <mxPoint x="1170" y="524" as="targetPoint" />
          </mxGeometry>
        </mxCell>
        <mxCell id="McvtSRhCw-n-5tpOQbnj-58" value="1" style="text;html=1;align=center;verticalAlign=middle;whiteSpace=wrap;rounded=0;" parent="WIyWlLk6GJQsqaUBKTNV-1" vertex="1">
          <mxGeometry x="460" y="180" width="60" height="30" as="geometry" />
        </mxCell>
        <mxCell id="McvtSRhCw-n-5tpOQbnj-59" value="*" style="text;html=1;align=center;verticalAlign=middle;whiteSpace=wrap;rounded=0;" parent="WIyWlLk6GJQsqaUBKTNV-1" vertex="1">
          <mxGeometry x="131" y="421" width="60" height="30" as="geometry" />
        </mxCell>
        <mxCell id="McvtSRhCw-n-5tpOQbnj-60" value="receives" style="text;html=1;align=center;verticalAlign=middle;whiteSpace=wrap;rounded=0;rotation=-40;" parent="WIyWlLk6GJQsqaUBKTNV-1" vertex="1">
          <mxGeometry x="290" y="305" width="60" height="30" as="geometry" />
        </mxCell>
        <mxCell id="McvtSRhCw-n-5tpOQbnj-61" value="" style="endArrow=none;html=1;rounded=0;entryX=1.01;entryY=-0.05;entryDx=0;entryDy=0;entryPerimeter=0;exitX=0.086;exitY=1.19;exitDx=0;exitDy=0;exitPerimeter=0;" parent="WIyWlLk6GJQsqaUBKTNV-1" source="McvtSRhCw-n-5tpOQbnj-2" target="McvtSRhCw-n-5tpOQbnj-37" edge="1">
          <mxGeometry width="50" height="50" relative="1" as="geometry">
            <mxPoint x="518" y="210" as="sourcePoint" />
            <mxPoint x="162" y="471" as="targetPoint" />
          </mxGeometry>
        </mxCell>
        <mxCell id="McvtSRhCw-n-5tpOQbnj-62" value="1" style="text;html=1;align=center;verticalAlign=middle;whiteSpace=wrap;rounded=0;" parent="WIyWlLk6GJQsqaUBKTNV-1" vertex="1">
          <mxGeometry x="470" y="365" width="60" height="30" as="geometry" />
        </mxCell>
        <mxCell id="McvtSRhCw-n-5tpOQbnj-63" value="1" style="text;html=1;align=center;verticalAlign=middle;whiteSpace=wrap;rounded=0;" parent="WIyWlLk6GJQsqaUBKTNV-1" vertex="1">
          <mxGeometry x="164" y="887" width="60" height="30" as="geometry" />
        </mxCell>
        <mxCell id="McvtSRhCw-n-5tpOQbnj-64" value="generates" style="text;html=1;align=center;verticalAlign=middle;whiteSpace=wrap;rounded=0;" parent="WIyWlLk6GJQsqaUBKTNV-1" vertex="1">
          <mxGeometry x="330" y="565" width="60" height="30" as="geometry" />
        </mxCell>
      </root>
    </mxGraphModel>
  </diagram>
</mxfile>
